name D:\school\WTK\thesis\model\3dpredictsim\Results\Final\Fal_s1_bCst_PF_None_ls150_MT_k1000_MTP_T17_ig24.mot
datacolumns 128
datarows 4
range 0.00000000 0.03365368
endheader
time	pelvis_tilt	pelvis_list	pelvis_rotation	pelvis_tx	pelvis_ty	pelvis_tz	hip_flexion_l	hip_adduction_l	hip_rotation_l	hip_flexion_r	hip_adduction_r	hip_rotation_r	knee_angle_l	knee_angle_r	ankle_angle_l	ankle_angle_r	subtalar_angle_l	subtalar_angle_r	mtj_angle_l	mtj_angle_r	mtp_angle_l	mtp_angle_r	lumbar_extension	lumbar_bending	lumbar_rotation	arm_flex_l	arm_add_l	arm_rot_l	arm_flex_r	arm_add_r	arm_rot_r	elbow_flex_l	elbow_flex_r	pro_sup_l	pro_sup_r	glut_med1_l/activation	glut_med2_l/activation	glut_med3_l/activation	glut_min1_l/activation	glut_min2_l/activation	glut_min3_l/activation	semimem_l/activation	semiten_l/activation	bifemlh_l/activation	bifemsh_l/activation	sar_l/activation	add_long_l/activation	add_brev_l/activation	add_mag1_l/activation	add_mag2_l/activation	add_mag3_l/activation	tfl_l/activation	pect_l/activation	grac_l/activation	glut_max1_l/activation	glut_max2_l/activation	glut_max3_l/activation	iliacus_l/activation	psoas_l/activation	quad_fem_l/activation	gem_l/activation	peri_l/activation	rect_fem_l/activation	vas_med_l/activation	vas_int_l/activation	vas_lat_l/activation	med_gas_l/activation	lat_gas_l/activation	soleus_l/activation	tib_post_l/activation	flex_dig_l/activation	flex_hal_l/activation	tib_ant_l/activation	per_brev_l/activation	per_long_l/activation	per_tert_l/activation	ext_dig_l/activation	ext_hal_l/activation	ercspn_l/activation	intobl_l/activation	extobl_l/activation	glut_med1_r/activation	glut_med2_r/activation	glut_med3_r/activation	glut_min1_r/activation	glut_min2_r/activation	glut_min3_r/activation	semimem_r/activation	semiten_r/activation	bifemlh_r/activation	bifemsh_r/activation	sar_r/activation	add_long_r/activation	add_brev_r/activation	add_mag1_r/activation	add_mag2_r/activation	add_mag3_r/activation	tfl_r/activation	pect_r/activation	grac_r/activation	glut_max1_r/activation	glut_max2_r/activation	glut_max3_r/activation	iliacus_r/activation	psoas_r/activation	quad_fem_r/activation	gem_r/activation	peri_r/activation	rect_fem_r/activation	vas_med_r/activation	vas_int_r/activation	vas_lat_r/activation	med_gas_r/activation	lat_gas_r/activation	soleus_r/activation	tib_post_r/activation	flex_dig_r/activation	flex_hal_r/activation	tib_ant_r/activation	per_brev_r/activation	per_long_r/activation	per_tert_r/activation	ext_dig_r/activation	ext_hal_r/activation	ercspn_r/activation	intobl_r/activation	extobl_r/activation	
          0.00000000	         -2.92977638	         -2.09418530	          5.25999380	          0.00000000	          0.91915125	         -0.00196400	        -17.24336155	         -1.22552962	          6.68569314	         29.51776258	          3.37457001	         -2.28848191	         -7.07185650	        -12.26241772	         -1.60491674	          5.96065829	          9.91584081	         -3.59625113	          2.70658443	          0.12974849	         21.10847362	          0.32671712	         -2.11147824	          0.37085111	         -2.00867740	          4.47123721	        -13.45587936	         15.04238787	         -5.62990815	        -13.47203340	          5.15404739	         36.13201581	         17.69966024	         86.51662706	         86.51662706	          0.26119961	          0.09924880	          0.07045394	          0.29249061	          0.19498265	          0.10578342	          0.05000367	          0.05000064	          0.05000036	          0.05935053	          0.10259569	          0.10278933	          0.08172001	          0.05001542	          0.05003290	          0.05000345	          0.30547306	          0.05415072	          0.05001739	          0.05002871	          0.05001566	          0.05001344	          0.38140200	          0.62295763	          0.05000134	          0.05000149	          0.05000686	          0.22814277	          0.05004892	          0.05003709	          0.05002672	          0.27388411	          0.37702550	          0.30245007	          0.28674991	          0.28009515	          0.36737559	          0.05000008	          0.05930725	          0.11309911	          0.05000041	          0.05000011	          0.05000043	          0.05000005	          0.05000246	          0.05483614	          0.05934819	          0.05934822	          0.05000046	          0.05934831	          0.05934829	          0.05934371	          0.11220395	          0.05934848	          0.22192752	          0.05000065	          0.05000039	          0.13983263	          0.30199121	          0.11407617	          0.15565636	          0.11087685	          0.05000029	          0.06383086	          0.09796131	          0.05000131	          0.05004476	          0.15533646	          0.05139233	          0.05000050	          0.24914545	          0.26512586	          0.12610717	          0.05385099	          0.13990738	          0.13797878	          0.12380161	          0.05126708	          0.05191862	          0.05585719	          0.05000006	          0.05000083	          0.05000048	          0.54569475	          0.26295778	          0.16352388	          0.22273431	          0.47561855	          0.24109821	          0.05934820	          0.11118991	          0.09926446	
          0.01121789	         -2.92538017	         -2.19628665	          5.54279974	          0.01694868	          0.91812687	         -0.00175116	        -17.08693126	         -1.53381901	          6.47868902	         28.89326585	          3.73847148	         -2.05273684	         -9.03721753	        -12.51223719	         -2.29992722	          5.31929836	         10.88818952	         -3.97579761	          2.36514422	          0.10424684	         22.20624826	          0.34751245	         -1.91010557	          0.59037482	         -2.07554197	          4.17872893	        -13.46349575	         15.38381074	         -6.48685013	        -13.47330503	          4.93908482	         37.29254442	         17.28888886	         86.51662706	         86.51662706	          0.22005682	          0.08361566	          0.05935645	          0.24641914	          0.16427004	          0.08912101	          0.05000639	          0.05000098	          0.05000242	          0.05000198	          0.08643563	          0.19886111	          0.07603813	          0.07049875	          0.05935770	          0.05935010	          0.25735666	          0.09920774	          0.05003908	          0.05002440	          0.05001722	          0.05022912	          0.32132554	          0.56996238	          0.05036034	          0.05935262	          0.05934884	          0.19383811	          0.12870206	          0.14764121	          0.14059146	          0.23074324	          0.31763834	          0.25480966	          0.24158359	          0.23597673	          0.30950926	          0.05000003	          0.05000018	          0.12371536	          0.05000013	          0.05000003	          0.05000019	          0.05882664	          0.06762923	          0.05911395	          0.05000002	          0.05000009	          0.11141357	          0.05000010	          0.05000011	          0.05000012	          0.09453038	          0.05000047	          0.18697068	          0.05000021	          0.05938530	          0.11780716	          0.26784958	          0.34140524	          0.22057934	          0.12340221	          0.05000071	          0.07044496	          0.12805114	          0.05310740	          0.09198509	          0.13087393	          0.05000016	          0.06459054	          0.47361077	          0.22336460	          0.10624346	          0.06314576	          0.15940008	          0.16071063	          0.13689217	          0.05000117	          0.05942338	          0.05000007	          0.05934887	          0.05004822	          0.05934836	          0.49367774	          0.30521698	          0.20177167	          0.18765045	          0.43413271	          0.20312173	          0.05000002	          0.09367583	          0.08362882	
          0.02243578	         -2.91694187	         -2.30151217	          5.79687617	          0.03416942	          0.91712822	         -0.00155482	        -16.85567857	         -1.83898301	          6.26006755	         28.13124267	          4.01299759	         -1.78991035	        -11.12088004	        -13.00181074	         -3.16272690	          4.81081058	         11.80395286	         -4.37809188	          1.97944678	          0.06772019	         23.16980746	          0.25891358	         -1.69006564	          0.81954080	         -2.13079936	          3.81726910	        -13.46881669	         15.66232310	         -7.36329388	        -13.48171175	          4.78662115	         38.42346554	         16.91716157	         86.51662706	         86.51662706	          0.33053431	          0.07044498	          0.05000696	          0.32589216	          0.13839521	          0.07508318	          0.05000328	          0.05000039	          0.05000027	          0.05000074	          0.07282147	          0.16753781	          0.06406164	          0.05939437	          0.05000862	          0.05000185	          0.25190563	          0.08359555	          0.05000480	          0.05000472	          0.05000165	          0.05000085	          0.27071225	          0.53625807	          0.05000034	          0.05000413	          0.05000069	          0.16330577	          0.10842964	          0.12438560	          0.11844628	          0.19439771	          0.26760553	          0.21467330	          0.20353062	          0.19880708	          0.26075709	          0.05000007	          0.10306546	          0.14897997	          0.05000033	          0.05000027	          0.05000035	          0.05659732	          0.05697662	          0.05000009	          0.25037037	          0.25207793	          0.31763355	          0.37980574	          0.23936901	          0.21783109	          0.09061497	          0.05003911	          0.15819532	          0.06955262	          0.05003311	          0.09925083	          0.22565937	          0.28762892	          0.18583499	          0.12325356	          0.05000084	          0.05939525	          0.10788266	          0.05000066	          0.12808996	          0.11025951	          0.05014907	          0.05441673	          0.39901002	          0.18818153	          0.23139850	          0.05319941	          0.13429231	          0.13539645	          0.11532971	          0.05000134	          0.05006353	          0.05383815	          0.05000065	          0.05000061	          0.05000120	          0.56952314	          0.31641653	          0.16998983	          0.39845348	          0.51399650	          0.20484677	          0.06413146	          0.11452312	          0.07045603	
          0.03365368	         -2.90659425	         -2.39965811	          6.01731923	          0.05144415	          0.91618704	         -0.00133382	        -16.51835205	         -2.13136434	          6.04816636	         27.30925906	          4.26643289	         -1.52631019	        -13.35382192	        -13.44263812	         -4.16877644	          4.39541311	         12.66805581	         -4.78417486	          1.55464666	          0.05333431	         23.90399122	          0.26714016	         -1.47418364	          1.04715226	         -2.17642987	          3.42552219	        -13.48059306	         15.90569307	         -8.21092944	        -13.49022476	          4.69731159	         39.50086425	         16.55888903	         86.51662706	         86.51662706	          0.28726971	          0.05934888	          0.05000013	          0.27456001	          0.11659600	          0.06325653	          0.05000496	          0.05000031	          0.05000028	          0.05000016	          0.06135126	          0.16587633	          0.11605532	          0.05003964	          0.05003715	          0.05009580	          0.21229594	          0.07043155	          0.05000103	          0.05000644	          0.05000357	          0.05000262	          0.22807105	          0.48550463	          0.05000032	          0.05000088	          0.05000020	          0.13758272	          0.11781045	          0.11780846	          0.11780426	          0.16377714	          0.22545364	          0.18085902	          0.17147155	          0.16749217	          0.21968408	          0.08072123	          0.12674844	          0.14373027	          0.05000126	          0.12214718	          0.05000234	          0.08570570	          0.05000002	          0.05000005	          0.34086191	          0.34978563	          0.37619728	          0.31998156	          0.20171258	          0.20448373	          0.08077540	          0.09450414	          0.13327745	          0.06710199	          0.05000057	          0.08361739	          0.19011476	          0.24232394	          0.19796172	          0.16707226	          0.05000039	          0.05004192	          0.11306226	          0.21455446	          0.18548121	          0.16281461	          0.05000013	          0.05000012	          0.33616001	          0.15854022	          0.19495336	          0.05000006	          0.14247471	          0.16898867	          0.10340735	          0.05000004	          0.05000007	          0.05000001	          0.05000002	          0.05000015	          0.05000014	          0.62650813	          0.29062207	          0.15550609	          0.58369677	          0.54619205	          0.31214778	          0.08470077	          0.09648402	          0.05935816	
